<?xml version="1.0" encoding="UTF-8"?>
<svg id="_图层_1" data-name="图层 1" xmlns="http://www.w3.org/2000/svg" viewBox="0 0 274.54 274.54">
  <defs>
    <style>
      .cls-1 {
        fill: #fff;
      }
    </style>
  </defs>
  <path class="cls-1" d="M51.14,265.4c.83-3.58,1.25-8.98,1.25-16.19v-82.54l-4.23-4.72c-3.74-4.24-6.74-6.91-8.98-8.03-2.25-1.12-5.04-1.96-8.38-2.53v-1.46h23.92l96.21,107.2v-81.69c0-6.13-.25-10.71-.73-13.74-.49-3.03-1.79-5.47-3.89-7.3-2.1-1.83-5.4-2.83-9.89-3.01v-1.46h79.04c6.85,0,13.17,.59,18.96,1.76,5.79,1.17,10.97,2.74,15.55,4.68,4.58,1.95,8.53,4.08,11.87,6.4,3.34,2.32,6.16,4.68,8.46,7.09,1.51,1.5,2.9,3.08,4.24,4.7v-50.05h-27.66v-1.37c4.26,0,7.54-.4,9.85-1.2,2.3-.8,3.46-2.98,3.46-6.53,0-1.95-.55-4.55-1.64-7.82-.23-.46-.34-.8-.34-1.03l-11.31-33.58h-44.05l-10.1,31.09c-1.38,4.24-2.07,7.64-2.07,10.22,0,3.55,.89,5.91,2.68,7.09,1.78,1.17,4.32,1.76,7.6,1.76v1.37h-42.25c-.98-1.26-1.9-2.48-2.76-3.65-.86-1.17-1.79-2.42-2.76-3.74-.58-.86-1.43-2.16-2.55-3.91-1.12-1.75-1.8-2.73-2.03-2.96l-15.2-25c-3.05-5.1-6.17-9.23-9.37-12.41s-6.17-5.45-8.94-6.83c-2.76-1.37-5.25-2.23-7.47-2.58-2.22-.34-4.82-.52-7.82-.52v46.3c0,8.99,4.61,13.63,13.82,13.92v1.37h-40.51v-1.37c2.53-.11,4.78-.59,6.74-1.42,1.96-.83,3.58-2.26,4.88-4.3,1.3-2.03,1.94-4.77,1.94-8.2V13.51c0-5.04-1.24-8.59-3.71-10.65-1.81-1.51-3.74-2.45-5.79-2.86H41.65c.34,.11,.69,.21,1.03,.33,4.61,1.58,8.51,3.75,11.7,6.53,3.2,2.78,5.66,5.93,7.38,9.45,1.73,3.52,2.59,7.34,2.59,11.47,0,7.62-2.48,13.8-7.43,18.55-4.95,4.75-11.6,8.25-19.95,10.48v.34c3.8,.4,7.46,1,10.97,1.8,3.51,.8,6.68,1.92,9.5,3.35,2.82,1.43,5.47,3.29,7.95,5.58,2.25,2.06,4.15,4.32,5.7,6.78,1.55,2.46,2.73,5.14,3.54,8.03,.81,2.89,1.21,5.86,1.21,8.89,0,6.59-1.71,12.26-5.14,17.01-3.43,4.75-7.3,8.36-11.62,10.82-6.16,3.38-14.65,5.07-25.48,5.07H0v86.32H36.94v9.05H0v54.68H42.57c1.71-.39,3.16-.97,4.33-1.76,1.99-1.34,3.4-3.81,4.23-7.39Z"/>
  <path class="cls-1" d="M146.64,9.52c2.73,3.35,4.69,6.89,5.87,10.61,1.18,3.72,1.77,7.39,1.77,10.99,0,4.58-.97,8.98-2.89,13.19-1.93,4.21-4.89,7.83-8.9,10.87-4,3.04-9,5.1-14.98,6.18v.34c7.6,3.67,14.62,10.94,21.07,21.82l11.49,19.33c5.18,8.65,9.34,14.12,12.48,16.41,1.37,1,2.74,1.8,4.09,2.42,1.77-.81,3.32-1.95,4.64-3.41,2.56-2.83,4.79-7.14,6.69-12.93L222.73,0h-90.87c1.14,.36,2.25,.77,3.29,1.23,4.92,2.18,8.75,4.94,11.49,8.29Z"/>
  <path class="cls-1" d="M56.07,109.03c3.4-5.33,5.1-11.31,5.1-17.95,0-4.81-.85-9.16-2.55-13.06-1.7-3.89-4.03-7.14-7-9.75-2.97-2.61-6.69-4.65-11.18-6.14-4.49-1.49-9.39-2.23-14.68-2.23H12.72v45.61c0,3.04,.3,5.57,.91,7.6,.6,2.03,2.26,3.79,4.97,5.28,2.71,1.49,6.88,2.23,12.52,2.23,11.69,0,20.01-3.86,24.96-11.6Z"/>
  <path class="cls-1" d="M35.52,53.97c1.84-.92,3.76-2.18,5.74-3.78,1.99-1.6,3.89-4.12,5.7-7.56,1.81-3.44,2.72-7.59,2.72-12.45,0-3.78-.6-7.37-1.81-10.78-1.21-3.41-2.97-6.43-5.27-9.06-2.3-2.63-5.04-4.69-8.21-6.19-3.17-1.49-6.62-2.23-10.36-2.23-3.28,0-7.05,.63-11.31,1.89V56.03h8.29c6.79,0,11.63-.69,14.51-2.06Z"/>
  <path class="cls-1" d="M56.27,249.03c0,6.47,.26,11.28,.78,14.43,.52,3.15,1.27,5.41,2.25,6.79,1.54,2.15,3.92,3.58,7.11,4.29h82.98L56.27,171.21v77.82Z"/>
  <path class="cls-1" d="M274.54,112.65V0h-40.05l36.83,104.82c1.11,3.08,2.18,5.68,3.22,7.83Z"/>
  <path class="cls-1" d="M270.65,194.19c-2.13-7.36-5.38-13.9-9.76-19.63-4.89-6.47-11.18-11.54-18.87-15.2-7.69-3.66-16.94-5.5-27.77-5.5-5.59,0-12.61,.69-21.07,2.06v100.24c0,4.93,.79,8.55,2.37,10.87s4.04,3.82,7.38,4.51c3.34,.69,8.23,1.03,14.68,1.03,9.21,0,16.99-.9,23.32-2.71,6.33-1.8,12.47-5.83,18.4-12.07,4.38-4.64,7.89-10.31,10.54-17.01,2.65-6.7,3.97-14.8,3.97-24.31,0-7.5-1.07-14.93-3.2-22.29Z"/>
  <polygon class="cls-1" points="224.08 8.36 223.74 8.36 204.3 68.4 244.81 68.4 224.08 8.36"/>
  <path class="cls-1" d="M177.11,270.59c1.96-2.98,2.94-6.13,2.94-9.45v-95.52c0-3.21-.53-5.9-1.6-8.07-1.07-2.18-2.49-3.75-4.28-4.72-1.75-.96-3.7-1.44-5.85-1.45-3.2,.4-5.74,1.01-7.6,1.84-1.87,.83-3.32,2.46-4.36,4.9-1.04,2.43-1.55,5.94-1.55,10.52v105.91h17.05c2.19-.66,3.95-1.97,5.25-3.95Z"/>
  <path class="cls-1" d="M259.16,268.36c-4.09,2.41-8.78,4.35-14.08,5.84-.43,.12-.9,.23-1.35,.34h30.81v-19.01c-.9,1.04-1.84,2.06-2.81,3.04-3.6,3.61-7.79,6.87-12.57,9.79Z"/>
  <path class="cls-1" d="M125.74,56.29c4.86-2.18,8.39-5.28,10.58-9.32,2.19-4.04,3.28-8.98,3.28-14.82,0-4.87-.98-9.63-2.94-14.3-1.96-4.67-5.28-8.59-9.98-11.77-4.69-3.18-11.01-4.77-18.96-4.77-3.23,0-5.87,.26-7.95,.77V59.55h7.25c7.6,0,13.83-1.09,18.7-3.26Z"/>
</svg> 