<?xml version="1.0" encoding="utf-8"?>
<!-- Generator: Adobe Illustrator 26.4.1, SVG Export Plug-In . SVG Version: 6.00 Build 0)  -->
<svg version="1.1" id="图层_1" xmlns="http://www.w3.org/2000/svg" xmlns:xlink="http://www.w3.org/1999/xlink" x="0px" y="0px"
	 viewBox="0 0 250 250" style="enable-background:new 0 0 250 250;" xml:space="preserve">
<style type="text/css">
	.st0{fill:#AAFFFF;}
</style>
<g>
	<path class="st0" d="M52,233.6c0.7-3,1-7.6,1-13.7v-70l-3.6-4c-3.2-3.6-5.7-5.9-7.6-6.8c-1.9-0.9-4.3-1.7-7.1-2.2v-1.2h20.3
		l81.6,90.9v-69.3c0-5.2-0.2-9.1-0.7-11.7c-0.4-2.6-1.5-4.7-3.3-6.2c-1.8-1.6-4.6-2.4-8.4-2.5v-1.2h25.5h1.6h39.9
		c5.8,0,11.1,0.5,16.1,1.5c4.9,1,9.3,2.3,13.2,3.9c3.9,1.7,7.2,3.5,10.1,5.4c2.8,2,5.2,3.9,7.2,6c1.3,1.3,2.4,2.6,3.6,4v-42.4H218
		v-1.1c3.6,0,6.4-0.4,8.3-1c2-0.7,2.9-2.5,2.9-5.5c0-1.7-0.5-3.8-1.4-6.6c-0.2-0.4-0.3-0.7-0.3-0.8l-9.6-28.5h-37.3L172,96.8
		c-1.2,3.6-1.8,6.5-1.8,8.7c0,3,0.7,5,2.2,6c1.5,1,3.6,1.5,6.5,1.5v1.1h-16.2h-9.2h-10.5c-0.8-1-1.6-2.1-2.3-3.1
		c-0.7-1-1.5-2.1-2.3-3.2c-0.5-0.7-1.2-1.9-2.2-3.3c-0.9-1.5-1.5-2.3-1.7-2.5l-12.9-21.2c-2.6-4.3-5.2-7.9-7.9-10.6
		s-5.2-4.6-7.6-5.8c-2.3-1.1-4.5-1.9-6.4-2.2c-1.9-0.3-4.1-0.5-6.6-0.5v39.3c0,7.7,3.9,11.6,11.7,11.8v1.1H70.6v-1.1
		c2.2-0.1,4-0.5,5.7-1.2c1.7-0.7,3.1-2,4.1-3.6c1.1-1.7,1.7-4,1.7-6.9v-81c0-4.3-1-7.3-3.2-9.1c-1.5-1.3-3.2-2.1-5-2.4l-30,0
		c0,0,0,0,0,0c4.3,1.3,7.8,3.3,10.8,5.8c2.7,2.3,4.8,5,6.3,8c1.5,3,2.2,6.3,2.2,9.7c0,6.5-2.1,11.7-6.3,15.7s-9.8,7-16.9,8.9V57
		c3.2,0.4,6.4,0.8,9.3,1.5c3,0.7,5.7,1.6,8,2.8c2.4,1.2,4.7,2.8,6.7,4.8c1.9,1.8,3.6,3.6,4.9,5.8c1.3,2.1,2.3,4.4,3,6.8
		c0.7,2.4,1,5,1,7.6c0,5.6-1.5,10.4-4.4,14.4s-6.2,7.1-9.8,9.2c-5.2,2.9-12.4,4.3-21.6,4.3H8.6v73.2h31.3v7.7H8.6v38
		c0,4.6,3.8,8.4,8.4,8.4h27.7c1.5-0.3,2.7-0.8,3.6-1.5C50,238.8,51.2,236.7,52,233.6z"/>
	<path class="st0" d="M133,16.6c2.3,2.8,4,5.8,5,9c1,3.2,1.5,6.3,1.5,9.3c0,3.9-0.8,7.6-2.4,11.2c-1.6,3.6-4.1,6.6-7.6,9.3
		c-3.4,2.6-7.7,4.3-12.7,5.2V61c6.5,3.1,12.4,9.3,17.9,18.5l9.7,16.4c4.4,7.3,7.9,12,10.6,13.9c1.1,0.8,2.3,1.5,3.5,2.1
		c1.5-0.7,2.8-1.7,3.9-2.9c2.2-2.4,4-6.1,5.7-10.9l29.5-89.3h-77c0.9,0.3,1.9,0.7,2.8,1C127.3,11.5,130.6,13.8,133,16.6z"/>
	<path class="st0" d="M56.2,101.1c2.9-4.5,4.3-9.6,4.3-15.2c0-4.1-0.7-7.8-2.2-11c-1.4-3.3-3.5-6.1-5.9-8.2
		c-2.5-2.2-5.7-3.9-9.4-5.2c-3.8-1.2-7.9-1.9-12.4-1.9H19.4v38.7c0,2.6,0.3,4.8,0.7,6.5c0.5,1.7,1.9,3.2,4.2,4.5
		c2.3,1.3,5.8,1.9,10.7,1.9C44.9,110.9,52,107.6,56.2,101.1z"/>
	<path class="st0" d="M38.7,54.3c1.6-0.7,3.2-1.9,4.9-3.2c1.7-1.4,3.3-3.5,4.9-6.5c1.5-2.9,2.3-6.5,2.3-10.6c0-3.2-0.5-6.3-1.5-9.2
		s-2.5-5.4-4.5-7.7c-2-2.2-4.3-4-6.9-5.2c-2.7-1.2-5.6-1.9-8.8-1.9c-2.8,0-6,0.6-9.6,1.6v44.3h7C32.2,56.1,36.3,55.5,38.7,54.3z"/>
	<path class="st0" d="M56.3,219.8c0,5.5,0.2,9.5,0.7,12.2c0.5,2.7,1,4.6,1.9,5.8c1.3,1.9,3.4,3,6.1,3.6h70.4l-78.9-87.6L56.3,219.8
		L56.3,219.8z"/>
	<path class="st0" d="M241.4,104.2V17c0-4.6-3.8-8.4-8.4-8.4h-25.6l31.2,88.9C239.6,100.1,240.6,102.3,241.4,104.2z"/>
	<path class="st0" d="M238.1,173.2c-1.8-6.3-4.6-11.8-8.3-16.6c-4.1-5.4-9.4-9.7-16-12.9c-6.5-3.1-14.4-4.7-23.6-4.7
		c-4.8,0-10.7,0.6-17.9,1.8v85c0,4.2,0.7,7.3,2.1,9.3c1.3,2,3.5,3.3,6.3,3.8c2.8,0.6,7,0.8,12.4,0.8c7.9,0,14.4-0.7,19.7-2.3
		c5.3-1.5,10.6-5,15.6-10.2c3.7-3.9,6.7-8.7,9-14.4c2.2-5.7,3.4-12.5,3.4-20.6C240.8,185.8,239.9,179.5,238.1,173.2z"/>
	<polygon class="st0" points="198.6,15.7 198.3,15.7 181.8,66.6 216.2,66.6 	"/>
	<path class="st0" d="M158.8,238c1.7-2.5,2.5-5.2,2.5-8v-81c0-2.7-0.5-5-1.3-6.8c-0.9-1.9-2.2-3.2-3.6-4s-3.2-1.2-5-1.2
		c-2.7,0.4-4.9,0.8-6.5,1.6s-2.8,2.1-3.7,4.1c-0.8,2.1-1.3,5-1.3,8.9v89.8h14.5C156.2,240.8,157.7,239.7,158.8,238z"/>
	<path class="st0" d="M228.4,236.2c-3.5,2.1-7.5,3.6-12,5c-0.4,0.1-0.7,0.2-1.1,0.3H233c4.6,0,8.4-3.8,8.4-8.4v-7.7
		c-0.7,0.8-1.6,1.8-2.4,2.6C236,230.9,232.4,233.6,228.4,236.2z"/>
	<path class="st0" d="M115.2,56.4c4.1-1.9,7.1-4.5,9-7.9s2.8-7.6,2.8-12.5c0-4.1-0.8-8.1-2.5-12.2c-1.7-3.9-4.5-7.3-8.4-10
		c-4-2.7-9.3-4-16.1-4c-2.7,0-5,0.2-6.7,0.7v48.7h6.2C105.8,59.1,111.1,58.2,115.2,56.4z"/>
</g>
</svg>
