<?xml version="1.0" encoding="utf-8"?>
<!-- Generator: Adobe Illustrator 26.4.1, SVG Export Plug-In . SVG Version: 6.00 Build 0)  -->
<svg version="1.1" id="图层_1" xmlns="http://www.w3.org/2000/svg" xmlns:xlink="http://www.w3.org/1999/xlink" x="0px" y="0px"
	 viewBox="0 0 250 250" style="enable-background:new 0 0 250 250;" xml:space="preserve">
<style type="text/css">
	.st0{fill:#AAFFFF;}
</style>
<g>
	<path class="st0" d="M164.2,25.7c-3.1,3.7-5.5,8.4-7.2,14.3h32.5C181.8,34.1,173.3,29.3,164.2,25.7z"/>
	<path class="st0" d="M182.3,87.9l-20.5,46.2c2.3-0.7,4.8-1,7.5-1c6.5,0,13.3,3.4,20.3,10.3l-6.3,6.5c-5.3-5.1-10.4-7.6-15.3-7.6
		c-3.3,0-6,1-8.2,3.1c-2.2,2.1-3.3,4.6-3.3,7.6c0,3,1.2,5.6,3.5,7.7c2.3,2.2,6.4,4.7,12.1,7.7c5.7,3,10.1,6.3,13.1,9.8
		c3,3.5,4.5,7.8,4.5,12.8c0,6.4-2.2,11.8-6.7,16.2c-4.4,4.4-9.9,6.6-16.4,6.6c-4.3,0-8.4-1-12.4-2.9c-4-1.9-7.3-4.6-10.1-8l6.2-6.9
		c5.1,5.6,10.4,8.5,15.9,8.5c3.9,0,7.3-1.3,10-3.9c2.8-2.6,4.2-5.6,4.2-9.1c0-3.5-1.2-6.4-3.7-8.6c-2.4-2.2-6.5-4.8-12.2-7.7
		c-5.7-2.9-9.9-6-12.8-9.4c-1.5-1.8-2.6-4-3.3-6.4l-26.5-59.4c-7.8,9.4-17.9,14.1-30.5,14.1c-11.5,0-20.9-3.9-28.4-11.8
		C55.6,94.4,51.8,85,51.8,73.9c0-11.1,3.8-20.6,11.3-28.5c7.5-7.9,16.8-11.9,27.8-11.9c11,0,20.3,3.7,27.8,11
		c7.5,7.4,11.4,17.4,11.7,30.1H61.9c0.3,9.2,3.2,16.6,8.7,22.2c5.5,5.6,12.2,8.4,20,8.4c11.7,0,20.6-5,27-14.9l-4-9.1H124l25.4,58
		l23.2-53.1c-5.9-1.9-11-5.2-15.5-9.9c-7.5-7.9-11.2-17.4-11.2-28.5c0-9.7,2.9-18.1,8.5-25.4c-9.4-2.7-19.3-4.1-29.5-4.1
		c-55.7,0-101.5,42.8-106.4,97.3h5.6v13.6c7.8-10.4,17.4-15.6,28.5-15.6c5.7,0,10.9,1.6,15.5,4.7c4.6,3.1,7.8,7.2,9.8,12.2
		c1.9,5,2.9,12.4,2.9,22.2v39.2h-9.8v-36.3c0-8.9-0.4-14.9-1.2-18.1c-0.8-3.2-2.1-5.8-3.7-8c-1.7-2.2-3.8-3.9-6.4-5
		c-2.6-1.1-5.7-1.7-9.4-1.7c-3.7,0-7.3,0.9-10.8,2.7c-3.5,1.8-6.6,4.4-9,7.6c-2.5,3.3-4.2,6.6-5,10c-0.8,3.1-1.2,8.9-1.3,17.5
		c12.5,35.4,43.2,62.3,80.8,69.5v-54.6H91.6V167h13.5v-29.4h9.9V167h15.5v8.3H115v55.8c0,0.1,0,0.1,0,0.2c3.3,0.3,6.7,0.5,10,0.5
		c58.9,0,106.8-47.9,106.8-106.8c0-19.3-5.1-37.4-14.1-53.1C209.7,82.7,199,88,185.5,88C184.4,88,183.3,88,182.3,87.9z"/>
	<path class="st0" d="M109.5,49c-5.4-4.1-11.5-6.2-18.5-6.2c-14.3,0-23.7,7.7-28.1,23.2h56.7C118.2,58.8,114.9,53.2,109.5,49z"/>
	<path class="st0" d="M156,48.5c0.3,9.2,3.2,16.6,8.7,22.2c5.5,5.6,12.2,8.4,20,8.4c12,0,21.1-5.2,27.5-15.6
		c-3.8-5.4-8.1-10.4-12.8-14.9H156z"/>
	<path class="st0" d="M125,9L125,9C60.9,9,9,60.9,9,125v0c0,64.1,51.9,116,116,116h0c64.1,0,116-51.9,116-116v0
		C241,60.9,189.1,9,125,9z M125,236.1c-61.3,0-111.1-49.8-111.1-111.1S63.7,13.9,125,13.9S236.1,63.7,236.1,125
		S186.3,236.1,125,236.1z"/>
</g>
</svg>
