<?xml version="1.0" encoding="utf-8"?>
<!-- Generator: Adobe Illustrator 26.4.1, SVG Export Plug-In . SVG Version: 6.00 Build 0)  -->
<svg version="1.1" id="图层_1" xmlns="http://www.w3.org/2000/svg" xmlns:xlink="http://www.w3.org/1999/xlink" x="0px" y="0px"
	 viewBox="0 0 172.7 50" style="enable-background:new 0 0 172.7 50;" xml:space="preserve">
<style type="text/css">
	.st0{fill:#AAFFFF;}
</style>
<g>
	<g>
		<path class="st0" d="M25,1.7C12.1,1.7,1.7,12.1,1.7,25S12.1,48.3,25,48.3S48.3,37.9,48.3,25S37.9,1.7,25,1.7z M41.7,14.1
			C43.8,17.3,45,21,45,25s-1.2,7.7-3.2,10.9v-1.5h-3.9V18.3v-2.6h3.9L41.7,14.1L41.7,14.1z M25,5c6.2,0,11.7,2.8,15.4,7.3h-7.8v3.4
			h1.9v2.6c0,2.6-1.8,5.5-4.4,7c-0.2-0.9-0.6-1.9-1.2-2.7c-1.1-1.4-2.6-2-4-2.2c0.5-0.6,1.1-1.1,1.5-1.5c1.4-1.3,3.7-3.4,3.4-6.6
			h-1.9h-2h-5.6v3.4h4.4c-0.2,0.3-0.5,0.5-0.8,0.8c-1.1,1-2.5,2.2-3.4,4.4c-0.1,0.2-0.1,0.3-0.2,0.5c-1.8,1-3.6,2.7-4.6,5V14v-1.7
			H9.6C13.3,7.9,18.8,5,25,5z M5,25c0-4.2,1.3-8.1,3.5-11.3v2h3.9v16.1v2.6H8.6v2C6.3,33.1,5,29.2,5,25z M25,45
			c-6.2,0-11.7-2.8-15.4-7.3h8.2v-3.4h-1.9v-2.6c0-3.4,3.2-7.5,7.2-8.1c1.5-0.2,2.6,0.3,3.1,1c0.4,0.5,0.6,1.2,0.7,1.7
			c-1.3,0-2.2-0.4-2.6-1c-0.3-0.3-0.4-0.7-0.5-1.1c-0.2,0-0.3,0-0.5,0c-0.9,0.1-1.7,0.4-2.6,0.9c-0.1,0-0.1,0.1-0.2,0.1
			c0.2,0.7,0.6,1.4,1.1,2.1c1.9,2.4,4.8,2.5,6.4,2.1c2.2-0.5,5.3-2.7,6.7-5.9v10.7V36v1.7h5.9C36.7,42.1,31.2,45,25,45z"/>
		<path class="st0" d="M26.3,33.6c1-0.9,2.3-2.1,3.2-4c-0.5,0.3-1.1,0.4-1.6,0.6c-0.5,0.1-1,0.2-1.5,0.2s-1,0-1.5-0.1
			c-0.3,0.3-0.7,0.7-1,0.9c-1.4,1.3-3.7,3.4-3.4,6.6h1.9h2H30v-3.4h-4.4C25.7,34.1,26,33.8,26.3,33.6z"/>
	</g>
	<g>
		<path class="st0" d="M70.8,32.9c-0.1-0.8-0.2-1.3-0.4-1.9l-0.5-1.5h-5L64.4,31c-0.2,0.7-0.4,1.3-0.4,1.9h-4.1
			c0.3-0.5,0.4-1,0.8-2.2l3.8-10.6c0.3-0.9,0.5-1.4,0.6-1.9h4.6c0.1,0.5,0.2,1,0.6,1.9l3.8,10.6c0.3,0.9,0.6,1.7,0.8,2.2H70.8z
			 M67.4,21.2l-1.6,5.3h3.3L67.4,21.2z"/>
		<path class="st0" d="M77.4,25.5c-0.1-0.3-0.2-0.6-0.4-1.4c-0.3-0.8-0.4-1-0.6-1.2s-0.4-0.2-0.7-0.2h-0.9v1.4c0,0.6,0,0.9,0.1,1.3
			H73c0.1-0.4,0.1-0.7,0.1-1.3v-4.8c0-0.5,0-0.9-0.1-1.3c0.4,0,0.7,0,1.3,0h2.3c1.4,0,2.3,0.7,2.3,2c0,0.6-0.2,1.1-0.5,1.4
			c-0.2,0.2-0.4,0.3-0.8,0.4c0.5,0.1,0.7,0.3,0.9,1c0.1,0.3,0.3,0.6,0.7,1.5c0.1,0.2,0.2,0.5,0.4,0.9h-2.2V25.5z M76.1,21.2
			c0.5,0,0.8-0.3,0.8-0.8s-0.3-0.8-0.8-0.8h-1.4v1.6C74.7,21.2,76.1,21.2,76.1,21.2z"/>
		<path class="st0" d="M88.7,32.9c-0.1-0.6-0.3-1.3-0.8-2.6l-1.6-4.8c0-0.1-0.5-1.7-0.6-1.9c-0.2-0.6-0.2-0.6-0.3-0.9
			c0.1,1.1,0.2,2.6,0.2,3.5V30c0,1.2,0,2,0.1,2.7h-3.5c0.1-0.8,0.1-1.5,0.1-2.7v-9.2c0-1.1-0.1-2-0.1-2.8h4.7
			c0.1,0.8,0.3,1.3,0.7,2.5l2.6,7.6l2.6-7.6c0.4-1.2,0.5-1.7,0.7-2.5h4.7c-0.1,0.8-0.1,1.6-0.1,2.8V30c0,1.3,0,2,0.1,2.7h-3.5
			c0.1-0.8,0.1-1.5,0.1-2.7v-3.9c0-0.4,0.1-1.7,0.1-2.3c0.1-0.9,0.1-0.9,0.1-1.2c-0.4,1.4-0.6,2-0.8,2.6L92.5,30
			c-0.4,1.3-0.7,2-0.8,2.6h-3V32.9z"/>
		<path class="st0" d="M103,18.2c-0.1,0.7-0.1,1.3-0.1,2.6v9.5c0,1.2,0,1.9,0.1,2.6h-3.9c0.1-0.7,0.1-1.4,0.1-2.6v-9.5
			c0-1.3,0-1.8-0.1-2.6H103z"/>
		<path class="st0" d="M117.5,18.2c-0.1,0.8-0.1,1.4-0.1,2.7V27c0,4-2.4,6.3-6.7,6.3c-2.2,0-4-0.6-5-1.7c-1-1.1-1.6-2.6-1.6-4.6v-6
			c0-1.2,0-2-0.1-2.7h3.8c-0.1,0.7-0.1,1.4-0.1,2.7v6.1c0,2.2,1,3.3,3.1,3.3s3.1-1.1,3.1-3.3V21c0-1.3,0-1.9-0.1-2.7h3.7V18.2z"/>
	</g>
	<g>
		<path class="st0" d="M132.5,32.9h-1.2c-0.1-0.2-0.1-0.9-0.2-2.2c-0.6,1-1.8,2.4-4.7,2.4c-4.3,0-6.5-3.3-6.5-7.5
			c0-4.5,2.4-7.8,6.8-7.8c3.3,0,5.5,1.8,5.9,4.5h-1.5c-0.6-1.9-1.9-3.2-4.5-3.2c-3.6,0-5.2,2.8-5.2,6.4c0,3.3,1.5,6.2,5,6.2
			c3.6,0,4.5-2.3,4.5-5.3v-0.2h-4.5V25h6L132.5,32.9L132.5,32.9z"/>
		<path class="st0" d="M133.3,25.1c0-1.7,0-2.5,0-2.9h1.4c0,0.3,0,1.1,0,2.3c0.6-1.5,1.9-2.5,3.7-2.6v1.5c-2.2,0.1-3.7,1.5-3.7,4.1
			v5.4h-1.4V25.1z"/>
		<path class="st0" d="M146.7,27.5c0,3-1.7,5.7-5,5.7c-3,0-4.8-2.4-4.8-5.6c0-3.1,1.8-5.6,4.9-5.6C144.8,21.9,146.7,24.2,146.7,27.5
			z M138.5,27.5c0,2.5,1.3,4.4,3.4,4.4c2.2,0,3.4-1.8,3.4-4.4c0-2.5-1.2-4.4-3.4-4.4C139.6,23.2,138.5,25,138.5,27.5z"/>
		<path class="st0" d="M155,29.8c0,1.1,0,2.6,0,3.1h-1.4c0-0.3-0.1-1-0.1-1.8c-0.5,1.2-1.6,2-3.4,2c-1.7,0-3.5-0.7-3.5-3.9v-7.1h1.4
			v6.8c0,1.5,0.5,2.9,2.4,2.9c2.2,0,3.1-1.2,3.1-4.1v-5.6h1.4v7.7H155z"/>
		<path class="st0" d="M157.3,31.5v5.7h-1.4V24.8c0-0.9,0-1.8,0-2.6h1.4c0,0.4,0.1,1,0.1,1.8c0.6-1.2,1.8-2.1,3.7-2.1
			c2.5,0,4.3,2.1,4.3,5.4c0,3.9-2.1,5.9-4.7,5.9C158.7,33.2,157.8,32.4,157.3,31.5z M163.7,27.3c0-2.4-1.1-4.1-3.1-4.1
			c-2.4,0-3.4,1.5-3.4,4.3c0,2.7,0.8,4.4,3.3,4.4C162.6,31.9,163.7,30.2,163.7,27.3z"/>
	</g>
</g>
</svg>
