<?xml version="1.0" encoding="utf-8"?>
<!-- Generator: Adobe Illustrator 26.4.1, SVG Export Plug-In . SVG Version: 6.00 Build 0)  -->
<svg version="1.1" id="图层_1" xmlns="http://www.w3.org/2000/svg" xmlns:xlink="http://www.w3.org/1999/xlink" x="0px" y="0px"
	 viewBox="0 0 250 250" style="enable-background:new 0 0 250 250;" xml:space="preserve">
<style type="text/css">
	.st0{fill:#AAFFFF;}
</style>
<g>
	<rect x="5.5" y="209.2" class="st0" width="239.1" height="28.3"/>
	<g>
		<path class="st0" d="M112.1,170.9c-0.3,0.8-0.5,1.6-0.8,2.6c-0.3,0.9-0.6,1.8-1,2.7c-0.5-0.3-1-0.5-1.4-0.6c-0.4,0-0.7,0-1,0
			c-1.6,0-2.8,0.6-3.7,1.8c-1,1.3-1.6,2.8-1.8,4.3v10c0,0.7,0.1,1.2,0.4,1.8c0.3,0.7,0.7,1.3,1.2,2c0.3,0,0.5,0.1,0.8,0.2
			c0.3,0.1,0.6,0.3,1,0.4v0.2v0.2H94.6c0.7-0.3,1.2-0.7,1.8-1.4c0.4-0.5,0.8-1.1,1.2-1.8v-17.5c-0.1-0.8-0.4-1.4-0.8-2
			c-0.5-0.7-1.1-1-1.8-1l7.3-1.8v6.9c0.8-2,2-3.6,3.7-4.9c1.6-1.4,3.4-2.2,5.5-2.2H112.1z"/>
		<path class="st0" d="M124.9,170.7c0.4-0.1,0.8-0.2,1.2-0.2c0.4-0.1,0.8-0.1,1.2,0c3.5,0,6.7,1,9.4,3.1c2.7,2.1,4.4,5,4.9,8.8v0.4
			c-0.1,3.9-1.5,7.3-4.1,10c-2.6,2.6-5.9,4-9.8,4.1h-0.8c-2.1-0.1-4-0.5-5.7-1.2c-1.8-0.7-3.4-1.6-4.7-2.9c-1.3-1.3-2.2-2.8-2.8-4.3
			c-0.7-1.6-1-3.1-1-4.7c0-1.4,0.2-2.8,0.6-4.1c0.4-1.3,1-2.5,1.8-3.5c1.2-1.6,2.6-2.8,4.3-3.7C121.1,171.4,122.9,170.8,124.9,170.7
			z M127.7,171.5h-0.6c-3.1,0.1-5.4,1.4-6.9,3.9c-1.4,2.5-2.1,5.2-2,8.2c0,0.4,0,0.7,0,1c0,0.4,0.1,0.8,0.2,1.2l-0.2,0.2
			c0,2.5,0.8,4.8,2.4,6.9c1.6,2.1,3.7,3.2,6.3,3.3c0.1,0,0.3,0,0.6,0c0.1,0,0.3,0,0.6,0c2.9-0.5,4.9-2,6.1-4.5
			c1-2.6,1.6-5.2,1.6-7.9V183c-0.1-2.7-0.8-5.3-2-7.7C132.6,172.9,130.5,171.6,127.7,171.5z"/>
		<path class="st0" d="M169.5,161.4v29.3c-0.1,0.8-0.1,1.6,0.2,2.4c0.3,0.7,0.7,1.4,1.4,2.2c0.1,0,0.3,0.1,0.6,0.4
			c0.1,0.1,0.3,0.3,0.6,0.4v0.4H166l-1.2-5.3c-1.2,1.8-2.6,3.3-4.3,4.3c-1.6,0.9-3.3,1.4-5.3,1.6h-1.4c-3.1-0.5-5.8-1.8-7.9-3.9
			c-2.2-2.1-3.5-4.7-3.7-7.9c0-0.3,0-0.5,0-0.6v-0.4c0-2.2,0.5-4.3,1.4-6.1c0.8-2,2-3.6,3.7-4.9c1.2-0.9,2.4-1.6,3.7-2
			c1.4-0.5,2.9-0.7,4.3-0.6c1.4-0.1,2.9,0.1,4.3,0.6c1.6,0.5,3,1.4,4.3,2.6l0.4,0.4c0.1,0.1,0.3,0.3,0.4,0.4v-8.2
			c-0.1-0.9-0.4-1.6-0.8-2.2c-0.5-0.5-1.1-0.8-1.8-0.8V163L169.5,161.4z M157,171.6h-0.4c-2.1,0-3.8,0.7-5.1,2.2
			c-1.4,1.3-2.4,3-2.8,5.1c-0.3,0.8-0.5,1.6-0.6,2.6c-0.1,0.9-0.2,1.9-0.2,2.9c-0.1,2.5,0.3,4.8,1.4,6.9c1,2.2,2.7,3.8,5.1,4.7
			c0.3,0,0.5,0,0.8,0s0.5,0,0.8,0c1-0.1,2-0.4,2.9-0.8c0.9-0.4,1.8-1,2.8-1.8c1-1.3,1.9-2.9,2.6-4.7c0.5-1.7,0.8-3.4,0.8-5.1
			c0-1.8-0.3-3.6-0.8-5.3c-0.5-1.7-1.2-3.1-2.2-4.3c-0.8-0.8-1.6-1.4-2.4-1.8C158.8,171.8,157.9,171.6,157,171.6z"/>
		<path class="st0" d="M199.8,171.1v19.6c0,1,0.2,2.2,0.6,3.3c0.5,1.2,1.4,2,2.6,2.4h-6.5c-0.4-0.9-0.7-1.8-1-2.6
			c-0.3-0.9-0.4-1.8-0.4-2.6c-1,1.8-2.5,3.2-4.3,4.1c-1.8,0.9-3.7,1.4-5.7,1.6c-1.4-0.1-2.8-0.4-4.1-0.8c-1.3-0.5-2.5-1.2-3.5-2
			c-0.8-0.8-1.3-1.6-1.6-2.6c-0.4-0.8-0.6-1.7-0.6-2.7v-13.6c-0.1-0.7-0.4-1.2-0.8-1.8c-0.5-0.7-1-1-1.6-1l0.4-0.2l6.9-1
			c-0.1,1.6-0.2,3.2-0.2,4.9c0,1.7,0,3.4,0,5.1c0,0.9,0,1.8,0,2.7c0,0.9,0.1,1.9,0.2,2.9c0,2,0.5,3.8,1.6,5.5c1,1.7,2.7,2.6,4.9,2.8
			h0.2l0.2,0.2c2.4-0.1,4.3-1.1,5.7-2.9c1.3-1.8,2-3.9,2.2-6.3c0-1,0-2.1,0-3.1c0.1-1,0.2-2,0.2-2.9c0-0.9,0-1.8,0-2.7
			c0-1,0-2,0-2.8c-0.1-0.8-0.5-1.4-1-1.8c-0.4-0.4-0.9-0.6-1.4-0.6L199.8,171.1z"/>
		<path class="st0" d="M220.4,170.7c1.4,0,2.8,0.3,4.1,0.8c1.3,0.5,2.6,1.1,3.9,1.8c-0.1,0.8-0.3,1.6-0.6,2.6
			c-0.3,0.8-0.6,1.6-1,2.6c-0.7-2.1-1.8-3.8-3.5-5.1c-1.7-1.2-3.5-1.8-5.5-1.8c-1.3-0.1-2.5,0.1-3.5,0.8c-1.2,0.5-2.2,1.4-2.9,2.6
			c-0.8,1.2-1.4,2.6-1.8,4.1c-0.4,1.4-0.6,2.9-0.6,4.5c0,1.6,0.2,3.1,0.6,4.7c0.5,1.6,1.2,3,2.2,4.3c0.8,1.2,1.8,2,2.9,2.6
			c1.2,0.7,2.4,1,3.7,1c2-0.1,3.9-0.8,5.7-2c1.7-1.2,3-2.7,3.9-4.5c0.1,0,0.3,0.1,0.4,0.2c0.1,0.1,0.3,0.3,0.4,0.6
			c-1.3,1.8-2.9,3.4-4.7,4.7c-2,1.2-4.1,1.8-6.3,2h-1c-3.7-0.3-6.7-1.4-9-3.5c-2.5-2.2-3.9-5.1-4.3-8.6c0-0.1,0-0.3,0-0.4
			c0-0.1,0-0.3,0-0.4c0-2.4,0.5-4.6,1.6-6.7c0.9-2.1,2.4-3.7,4.5-4.9c1.2-0.7,2.5-1.1,3.9-1.4c1.4-0.3,2.9-0.4,4.3-0.4
			c0.4,0,0.8,0,1.2,0C219.4,170.7,219.9,170.7,220.4,170.7z"/>
		<path class="st0" d="M237.6,165.2h0.4v7.1l4.9,0.2v1.4h-4.9v16.9c0,1,0.3,2.1,0.8,3.1c0.7,1,1.6,1.7,2.8,2v0.4
			c-0.5,0-1.2,0.1-2,0.2c-0.7,0-1.3,0.1-2,0.2c-0.9,0-1.7-0.1-2.4-0.4c-0.7-0.1-1.1-0.4-1.4-0.8c-0.3-0.7-0.5-1.2-0.6-1.8
			c-0.1-0.5-0.2-1-0.2-1.4c0-0.3,0-0.5,0-0.8c0-0.3,0.1-0.5,0.2-0.6v-17.1l-3.7-0.2V173c1.7-0.8,3.3-1.8,4.7-3.1
			C235.7,168.4,236.8,166.9,237.6,165.2z"/>
	</g>
	<g>
		<path class="st0" d="M83.8,124.5H83L63.8,170c-1.3,2.9-2,5.2-2.3,7.4c-0.5,2.9,0.4,5.2,3.1,6.6c2.7,1.3,6.7,2.1,12.8,2.1H82
			l-3.9,10.2H6.7l3.9-10.2h3.1c8.4,0,14.1-1.1,17.3-2.9s6.4-6.8,9.9-14.7L93.2,45.5c2.2-5,3.3-8.1,3.6-10c0.5-2.9-0.2-5-2.1-6
			c-1.9-1.1-5.8-1.6-11.8-1.6h-7.3l3.9-10.2h5.2c13.7,0,28.1-1.8,43.4-5.2l-10.8,26l0.4,0.5c7.8-8.7,15.8-15.2,23.7-19.7
			c7.9-4.5,15.8-6.6,24-6.6c12.3,0,21.3,4.5,27.1,13.4c5.8,8.9,7.4,21,4.7,36c-4.1,23.4-14.2,43.6-30.2,60.1
			c-16,16.5-33.2,24.9-51.3,24.9c-8.7,0-15.7-1.8-21.1-5.5c-5.4-3.7-8.9-9.2-10.5-16.5L83.8,124.5z M156.6,26.4
			c-11.5,0-24,8.1-37,24.1s-21.3,33.3-24.5,51.7c-1.6,9.2-0.7,16.3,2.2,21.8c3,5.5,8,8.1,15.1,8.1c13.7,0,26.3-7.9,37.7-23.6
			c11.4-15.7,18.8-32.3,21.8-49.9c1.9-10.8,1.5-18.9-1-24.4c-2.4-5.5-7.2-8.1-14.3-8.1l0-0.3L156.6,26.4z"/>
	</g>
</g>
</svg>
